<?xml version="1.0" encoding="UTF-8"?>
<svg id="Layer_1" data-name="Layer 1" xmlns="http://www.w3.org/2000/svg" viewBox="0 0 871.86 907.81">
  <defs>
    <style>
      .cls-1 {
        fill: #fff;
      }
    </style>
  </defs>
  <path class="cls-1" d="M395.86,906.91C34.38,870.13-129.44,407.58,118.94,140.18,390.14-151.77,899.24,43.24,870.71,440.46c-18.55,258.24-317.15,441.93-538.01,274.05-216.76-164.77-88.63-515.46,154.94-457.34,129.04,30.79,190.42,206.55,61.65,275.02-91.88,48.86-203.25-13.89-130.03-113-17.26-2.7-38.14,18.18-47.65,33.27-53.02,84.1,30.05,185.77,118,194.58,227.85,22.84,328.8-249.37,185.35-415.35-136.84-158.32-380.89-129.69-504.48,28.15C-1.77,479.84,119.91,792.41,371.38,880.27l111.79,26.64c-28.11-2.06-59.67,2.81-87.31,0Z"/>
</svg>